<?xml version="1.0" encoding="UTF-8"?>
<svg id="Ebene_1" data-name="Ebene 1" xmlns="http://www.w3.org/2000/svg" viewBox="0 0 126.8 173.07">
  <defs>
    <style>
      .cls-1 {
        fill: #de79ae;
      }
    </style>
  </defs>
  <path class="cls-1" d="M95.94,26.37c.36-4.45-15.54-19.83-17.95-20.19-5.84-.86-8.06,10.29-13.4,17.4s4.67,14.74,15,22.84c7.79,6.1,15.54-9.87,16.35-20.06Z"/>
  <path class="cls-1" d="M58.42,34.99c-9.52-1.41-10.03,5.77-11.33,8.29-22.62,43.93-18.09,124.56,18.38,129.48,27.21,3.67,48.19-26.18,58.59-72.4C132.95,60.84,118.02.02,109.7,0c-4.66-.01-7.55,11.72-12.09,19.09-2.54,4.12-12.97,16.35-18.54,15.34-7.9-1.44-.68,16.29-7.65,15.69-9.65-.83-4.66-13.9-13-15.14Z"/>
  <path class="cls-1" d="M66.46,27.23C52.33,10.23,50,6.68,47.37,7.9c-9.54,4.44-20.77,25.91-22.68,29.7-16.66,33.1-8.17,74.26-.88,91.96,10.85,26.35,39.44,40.14,44.31,39.39,6.65-1.03-16.82-43.23-8.97-83.14,3.42-17.4,25.32-28.83,22.91-42.81-.63-3.66-5.59-3.71-15.61-15.77Z"/>
  <path class="cls-1" d="M43.1,31.48C27.45,15.87,19.46,2.05,16.93,2.16,6.48,2.6.57,36.69.26,41.82c-2.21,36.99,10.17,79.04,20.75,98.65,13.54,25.08,42.71,33.5,47.49,32.3,6.52-1.64-26.67-41.08-22.57-81.56,1.79-17.64,22.53-31.06,18.83-44.76-.97-3.58-10.57-3.9-21.67-14.97Z"/>
</svg>