<?xml version="1.0" encoding="UTF-8"?>
<svg id="Ebene_1" data-name="Ebene 1" xmlns="http://www.w3.org/2000/svg" viewBox="0 0 127.37 187.92">
  <defs>
    <style>
      .cls-1 {
        fill: #e89ec5;
      }

      .cls-2 {
        fill: #de79ae;
      }

      .cls-3 {
        fill: #d463a2;
      }
    </style>
  </defs>
  <path class="cls-1" d="M91.21,22.71c2.87-4.8-14.36-17.27-17.03-17.69-6.48-1.01-11.75,6.46-17.75,14.3s5.05,16.41,16.44,25.5c8.59,6.85,12.51-12.38,18.34-22.11Z"/>
  <path class="cls-3" d="M56.41,186.75c30.17,4.33,56-22.41,67.97-73.63,10.23-43.79-8.38-104.13-17.63-104.23-5.17-.06-10.01,1.5-16,7.14-3.91,3.68-14.47,22.68-20.64,21.5-8.76-1.67-5.18-14.03-12.91-14.76-10.71-1.01-12.41-19.05-21.65-20.51C25.01.6,17.37,22.81,15.9,25.59c-25.52,48.57.06,155.35,40.51,161.16"/>
  <path class="cls-2" d="M62.7,187.2c6.8-3.23-22.49-50.76-13.4-95,3.96-19.28,28.38-31.77,25.84-47.32-.66-4.07-6.18-10.89-17.2-24.36C42.41,1.52,39.09.18,36.29.01,24.7-.67,10.23,30.76,8.08,34.95c-18.81,36.6-.02,105.07,8.37,123.77,12.94,28.87,41.31,30.83,46.25,28.49"/>
</svg>