<?xml version="1.0" encoding="UTF-8"?>
<svg id="Ebene_1" data-name="Ebene 1" xmlns="http://www.w3.org/2000/svg" viewBox="0 0 103.8 378.27">
  <defs>
    <style>
      .cls-1 {
        fill: #2d8132;
      }
    </style>
  </defs>
  <path class="cls-1" d="M101.41,36.56c-4.55-14.84-26.93,133.14-52.29,253.69-2.43,11.57-2.01,86.66,8.48,88,10.04,1.28,31.07-62.43,36.07-109.57,3.25-30.66.07-20.07,4.24-123.76.46-11.36,10.31-86.19,3.5-108.37Z"/>
  <path class="cls-1" d="M1.89.85c4.55-14.84,36.87,168.85,62.23,289.41,2.43,11.57,2.01,86.66-8.48,88-10.04,1.28-31.07-62.43-36.07-109.57-3.25-30.66-6.16-17.86-10.32-121.55C8.8,135.78-4.91,23.02,1.89.85Z"/>
</svg>